<svg width="24" height="24" viewBox="0 0 24 24" fill="none" xmlns="http://www.w3.org/2000/svg">
<path d="M0 12C0 5.37258 5.37258 0 12 0V0C18.6274 0 24 5.37258 24 12V12C24 18.6274 18.6274 24 12 24V24C5.37258 24 0 18.6274 0 12V12Z" fill="#DCDCAA"/>
<path d="M10.9231 5.37867C11.6163 5.11206 12.3837 5.11206 13.0769 5.37867L18.0385 7.28696C18.6178 7.50976 19 8.06632 19 8.68697V15.3134C19 15.934 18.6178 16.4906 18.0385 16.7134L13.0769 18.6217C12.3837 18.8883 11.6163 18.8883 10.9231 18.6217L5.96153 16.7134C5.38224 16.4906 5 15.934 5 15.3134V8.68697C5 8.06632 5.38224 7.50976 5.96153 7.28696L10.9231 5.37867ZM12.718 6.31202C12.2558 6.13427 11.7442 6.13427 11.282 6.31202L9.89757 6.84451L15.4885 8.96107L17.4357 8.12655L12.718 6.31202ZM18 8.9727L12.5 11.3298V17.7581C12.5736 17.7391 12.6464 17.7159 12.718 17.6883L17.6795 15.78C17.8726 15.7058 18 15.5203 18 15.3134V8.9727ZM11.5 17.7581V11.3298L6 8.9727V15.3134C6 15.5203 6.12741 15.7058 6.32051 15.78L11.282 17.6883C11.3536 17.7159 11.4264 17.7391 11.5 17.7581ZM6.56425 8.12655L12 10.4562L14.1638 9.52882L8.49652 7.38337L6.56425 8.12655Z" fill="white" fill-opacity="0.7"/>
</svg>
