<svg width="24" height="24" viewBox="0 0 24 24" fill="none" xmlns="http://www.w3.org/2000/svg">
<path d="M0 12C0 5.37258 5.37258 0 12 0V0C18.6274 0 24 5.37258 24 12V12C24 18.6274 18.6274 24 12 24V24C5.37258 24 0 18.6274 0 12V12Z" fill="#C586C0"/>
<path d="M5.46327 6.44235C5.49425 5.63695 6.15617 5 6.96216 5H8.03761C8.8436 5 9.50552 5.63695 9.5365 6.44235L9.95958 17.4424C9.99228 18.2928 9.31172 19 8.46068 19H6.53909C5.68805 19 5.00749 18.2928 5.04019 17.4424L5.46327 6.44235ZM6.96216 6C6.6935 6 6.47286 6.21232 6.46253 6.48078L6.03946 17.4808C6.02855 17.7643 6.25541 18 6.53909 18H8.46068C8.74436 18 8.97122 17.7643 8.96031 17.4808L8.53724 6.48078C8.52691 6.21232 8.30627 6 8.03761 6H6.96216ZM17.4999 19C18.3283 19 18.9999 18.3284 18.9999 17.5V8.5C18.9999 8.29777 18.8781 8.11545 18.6912 8.03806C18.5044 7.96067 18.2893 8.00345 18.1463 8.14645L14.9999 11.2929V8.5C14.9999 8.3031 14.8843 8.12454 14.7047 8.04388C14.5251 7.96322 14.3149 7.99548 14.1677 8.12629L10.7199 11.191L10.7697 12.4847L13.9999 9.61342V12.5C13.9999 12.7022 14.1217 12.8845 14.3086 12.9619C14.4954 13.0393 14.7105 12.9966 14.8535 12.8536L17.9999 9.70711V17.5C17.9999 17.7761 17.776 18 17.4999 18H16.9999V15C16.9999 14.4477 16.5522 14 15.9999 14H12.9999C12.4476 14 11.9999 14.4477 11.9999 15V18H10.9109C10.836 18.3689 10.6795 18.7089 10.4609 19H17.4999ZM12.9999 18V15H15.9999V18H12.9999Z" fill="white" fill-opacity="0.7"/>
</svg>
