<svg width="24" height="24" viewBox="0 0 24 24" fill="none" xmlns="http://www.w3.org/2000/svg">
<path d="M0 12C0 5.37258 5.37258 0 12 0V0C18.6274 0 24 5.37258 24 12V12C24 18.6274 18.6274 24 12 24V24C5.37258 24 0 18.6274 0 12V12Z" fill="#9CDCFE"/>
<path d="M13.8031 7.0431C14.0554 7.15525 14.1691 7.45073 14.0569 7.70307L10.0569 16.7031C9.94475 16.9554 9.64927 17.0691 9.39693 16.9569C9.14459 16.8448 9.03094 16.5493 9.14309 16.2969L13.1431 7.29693C13.2552 7.04459 13.5507 6.93094 13.8031 7.0431ZM8.33218 9.3763C8.53857 9.55976 8.55716 9.87579 8.3737 10.0822L6.66898 12L8.3737 13.9178C8.55716 14.1242 8.53857 14.4402 8.33218 14.6237C8.12579 14.8072 7.80975 14.7886 7.6263 14.5822L5.6263 12.3322C5.4579 12.1427 5.4579 11.8573 5.6263 11.6678L7.6263 9.41782C7.80975 9.21143 8.12579 9.19284 8.33218 9.3763ZM15.6678 9.3763C15.8742 9.19284 16.1902 9.21143 16.3737 9.41782L18.3737 11.6678C18.5421 11.8573 18.5421 12.1427 18.3737 12.3322L16.3737 14.5822C16.1902 14.7886 15.8742 14.8072 15.6678 14.6237C15.4614 14.4402 15.4428 14.1242 15.6263 13.9178L17.331 12L15.6263 10.0822C15.4428 9.87579 15.4614 9.55976 15.6678 9.3763Z" fill="white" fill-opacity="0.7"/>
</svg>
