<svg width="24" height="24" viewBox="0 0 24 24" fill="none" xmlns="http://www.w3.org/2000/svg">
<path d="M0 12C0 5.37258 5.37258 0 12 0V0C18.6274 0 24 5.37258 24 12V12C24 18.6274 18.6274 24 12 24V24C5.37258 24 0 18.6274 0 12V12Z" fill="#CE9178"/>
<g clip-path="url(#clip0_2974_13039)">
<path d="M4.5 4C4.22386 4 4 4.22386 4 4.5V9.50003C4 11.8163 5.75002 13.7238 8 13.9726V15C8 17.7614 10.2386 20 13 20C15.7614 20 18 17.7614 18 15V13.95C19.1411 13.7184 20 12.7095 20 11.5C20 10.1193 18.8807 9 17.5 9C16.1193 9 15 10.1193 15 11.5C15 12.7095 15.8589 13.7184 17 13.95V15C17 17.2092 15.2091 19 13 19C10.7909 19 9 17.2092 9 15V13.9726C11.25 13.7238 13 11.8163 13 9.50003V4.5C13 4.22386 12.7761 4 12.5 4H10.5C10.2239 4 10 4.22386 10 4.5C10 4.77614 10.2239 5 10.5 5H12V9.50003C12 11.433 10.433 13 8.5 13C6.567 13 5 11.433 5 9.50003V5H6.5C6.77614 5 7 4.77614 7 4.5C7 4.22386 6.77614 4 6.5 4H4.5ZM17.5 10C18.3284 10 19 10.6716 19 11.5C19 12.3284 18.3284 13 17.5 13C16.6716 13 16 12.3284 16 11.5C16 10.6716 16.6716 10 17.5 10Z" fill="white" fill-opacity="0.7"/>
</g>
<defs>
<clipPath id="clip0_2974_13039">
<rect width="16" height="16" fill="white" transform="translate(4 4)"/>
</clipPath>
</defs>
</svg>
