<svg width="24" height="24" viewBox="0 0 24 24" fill="none" xmlns="http://www.w3.org/2000/svg">
<path d="M0 12C0 5.37258 5.37258 0 12 0V0C18.6274 0 24 5.37258 24 12V12C24 18.6274 18.6274 24 12 24V24C5.37258 24 0 18.6274 0 12V12Z" fill="#4EC9B0"/>
<path d="M10 13C10 13.4136 9.66467 13.7489 9.25102 13.7489C8.83737 13.7489 8.50204 13.4136 8.50204 13C8.50204 12.5863 8.83737 12.251 9.25102 12.251C9.66467 12.251 10 12.5863 10 13ZM14.749 13.7489C15.1626 13.7489 15.498 13.4136 15.498 13C15.498 12.5863 15.1626 12.251 14.749 12.251C14.3353 12.251 14 12.5863 14 13C14 13.4136 14.3353 13.7489 14.749 13.7489ZM7.0344 10.0737L7.04392 10H6.50005C6.22391 10 6.00005 9.77614 6.00005 9.5C6.00005 9.22386 6.22391 9 6.50005 9H7.17304L7.33523 7.74388C7.464 6.74661 8.31321 6 9.31876 6H14.6794C15.686 6 16.5358 6.74808 16.6633 7.74655L16.8235 9H17.5C17.7761 9 18 9.22386 18 9.5C18 9.77614 17.7761 10 17.5 10H16.9512L16.9604 10.072C17.5636 10.2663 18 10.8322 18 11.5V14.5C18 15.3284 17.3284 16 16.5 16H16.4969V17.25C16.4969 17.6642 16.1612 18 15.7469 18C15.3327 18 14.9969 17.6642 14.9969 17.25V16H9V17.25C9 17.6642 8.66421 18 8.25 18C7.83579 18 7.5 17.6642 7.5 17.25L7.5 16C6.67157 16 6 15.3284 6 14.5V11.5C6 10.8341 6.43391 10.2696 7.0344 10.0737ZM8.327 7.87194L8.05222 10H15.9431L15.6714 7.87327C15.6076 7.37404 15.1827 7 14.6794 7H9.31876C8.81599 7 8.39138 7.3733 8.327 7.87194ZM16.5 15C16.7761 15 17 14.7761 17 14.5V11.5C17 11.2239 16.7761 11 16.5 11H7.5C7.22386 11 7 11.2239 7 11.5V14.5C7 14.7761 7.22386 15 7.5 15H16.5Z" fill="white" fill-opacity="0.7"/>
</svg>
