<svg width="24" height="24" viewBox="0 0 24 24" fill="none" xmlns="http://www.w3.org/2000/svg">
<path d="M0 12C0 5.37258 5.37258 0 12 0V0C18.6274 0 24 5.37258 24 12V12C24 18.6274 18.6274 24 12 24V24C5.37258 24 0 18.6274 0 12V12Z" fill="black"/>
<path d="M12.5 5.5C12.5 5.22386 12.2761 5 12 5C11.7239 5 11.5 5.22386 11.5 5.5V6H9.5C8.67157 6 8 6.67157 8 7.5V10.5C8 11.3284 8.67157 12 9.5 12H14.5C15.3284 12 16 11.3284 16 10.5V7.5C16 6.67157 15.3284 6 14.5 6H12.5V5.5ZM9 7.5C9 7.22386 9.22386 7 9.5 7H14.5C14.7761 7 15 7.22386 15 7.5V10.5C15 10.7761 14.7761 11 14.5 11H9.5C9.22386 11 9 10.7761 9 10.5V7.5ZM8 15C8 14.7239 8.22386 14.5 8.5 14.5H15.5C15.7761 14.5 16 14.7239 16 15V15.35C16 16.2965 15.5941 16.9263 14.9231 17.3444C14.2217 17.7814 13.2028 18 12 18C10.805 18 9.78568 17.7816 9.082 17.3441C8.4083 16.9253 8 16.2951 8 15.35V15ZM8.5 13.5C7.67157 13.5 7 14.1716 7 15V15.35C7 16.6549 7.59906 17.5997 8.55404 18.1934C9.47904 18.7684 10.7097 19 12 19C13.2972 19 14.5283 18.7686 15.4519 18.1931C16.4059 17.5987 17 16.6535 17 15.35V15C17 14.1716 16.3284 13.5 15.5 13.5H8.5ZM11.25 9C11.25 9.41421 10.9142 9.75 10.5 9.75C10.0858 9.75 9.75 9.41421 9.75 9C9.75 8.58579 10.0858 8.25 10.5 8.25C10.9142 8.25 11.25 8.58579 11.25 9ZM13.5 9.75C13.9142 9.75 14.25 9.41421 14.25 9C14.25 8.58579 13.9142 8.25 13.5 8.25C13.0858 8.25 12.75 8.58579 12.75 9C12.75 9.41421 13.0858 9.75 13.5 9.75Z" fill="#ADADAD"/>
</svg>
