<svg width="24" height="24" viewBox="0 0 24 24" fill="none" xmlns="http://www.w3.org/2000/svg">
<g clip-path="url(#clip0_12913_64154)">
<path d="M24 15.0932C23.9765 13.7943 23.4934 12.5459 22.6366 11.5695C21.7798 10.5931 20.6047 9.95193 19.32 9.75982C19.2676 7.95024 18.5028 6.23456 17.1918 4.98605C15.8809 3.73755 14.13 3.05724 12.32 3.09315C10.8626 3.07824 9.43697 3.51859 8.24187 4.35277C7.04677 5.18695 6.14184 6.37336 5.65333 7.74648C4.09991 7.94623 2.67141 8.70185 1.63209 9.87353C0.592776 11.0452 0.0129911 12.5537 0 14.1198C0.0625816 15.8623 0.805303 17.5109 2.06896 18.7122C3.33261 19.9135 5.01662 20.572 6.76 20.5465H7.34667H18.2933C18.3906 20.5603 18.4894 20.5603 18.5867 20.5465C20.0217 20.5222 21.3906 19.9386 22.4017 18.92C23.4128 17.9014 23.9863 16.5283 24 15.0932Z" fill="url(#paint0_linear_12913_64154)"/>
<path d="M16.4401 8.78678C16.0219 8.09306 15.4073 7.53901 14.6741 7.19474C13.9409 6.85048 13.1221 6.73149 12.3212 6.85283C11.5204 6.97418 10.7735 7.3304 10.1752 7.87641C9.57686 8.42241 9.15399 9.13366 8.96009 9.92011C8.72248 10.9485 8.8795 12.0286 9.40009 12.9468L6.28009 16.1068C6.18173 16.2047 6.10367 16.321 6.05041 16.4491C5.99715 16.5773 5.96973 16.7147 5.96973 16.8534C5.96973 16.9922 5.99715 17.1296 6.05041 17.2577C6.10367 17.3859 6.18173 17.5022 6.28009 17.6001C6.37783 17.6984 6.49424 17.7762 6.62246 17.8288C6.75069 17.8815 6.88815 17.908 7.02676 17.9068C7.16559 17.9095 7.3035 17.8838 7.43195 17.831C7.56039 17.7782 7.67662 17.6997 7.77343 17.6001L10.8801 14.4534C11.2178 14.6498 11.5813 14.7979 11.9601 14.8934C12.7468 15.0824 13.5717 15.0347 14.3314 14.7565C15.0911 14.4782 15.7517 13.9818 16.2302 13.3295C16.7088 12.6772 16.984 11.898 17.0214 11.0898C17.0587 10.2816 16.8565 9.48045 16.4401 8.78678ZM15.7201 11.5868C15.5682 12.2121 15.2112 12.7685 14.7061 13.1673C14.201 13.566 13.5769 13.7841 12.9334 13.7868C12.7034 13.7886 12.4744 13.7572 12.2534 13.6934C11.9161 13.6175 11.5983 13.4722 11.3201 13.2668C11.0267 13.0668 10.7735 12.8135 10.5734 12.5201C10.3475 12.1857 10.194 11.8078 10.1228 11.4105C10.0516 11.0132 10.0643 10.6055 10.1601 10.2134C10.3046 9.5856 10.6573 9.02514 11.1609 8.62327C11.6644 8.22139 12.2892 8.00176 12.9334 8.00011C13.1668 8.00042 13.3994 8.02726 13.6268 8.08011C14.366 8.27575 14.9983 8.7548 15.3868 9.41345C15.584 9.73536 15.7151 10.0934 15.7723 10.4665C15.8295 10.8397 15.8118 11.2205 15.7201 11.5868V11.5868Z" fill="#F2F2F2"/>
<path d="M12.9201 13.7864C14.5033 13.7864 15.7868 12.4969 15.7868 10.9064C15.7868 9.31579 14.5033 8.02637 12.9201 8.02637C11.3369 8.02637 10.0535 9.31579 10.0535 10.9064C10.0535 12.4969 11.3369 13.7864 12.9201 13.7864Z" fill="#83B9F9"/>
</g>
<defs>
<linearGradient id="paint0_linear_12913_64154" x1="12" y1="0.479816" x2="12" y2="24.4132" gradientUnits="userSpaceOnUse">
<stop offset="0.18" stop-color="#5EA0EF"/>
<stop offset="1" stop-color="#0078D4"/>
</linearGradient>
<clipPath id="clip0_12913_64154">
<rect width="24" height="24" fill="white"/>
</clipPath>
</defs>
</svg>
