<svg width="24" height="24" viewBox="0 0 24 24" fill="none" xmlns="http://www.w3.org/2000/svg">
<g id="Bing">
<g id="Rectangle 34646392">
<path d="M4.99971 2.00243C4.99984 1.20087 5.89575 0.725217 6.5598 1.17416L9.12019 2.90519C9.67036 3.27715 10 3.89794 10 4.56206V19.0005C10 19.0005 8.05428 20.5039 6.99362 20.0005C5.61376 19.3456 4.99731 16.6372 4.99731 16.6372L4.99971 2.00243Z" fill="url(#paint0_linear_2360_9460)"/>
<path d="M4.99971 2.00243C4.99984 1.20087 5.89575 0.725217 6.5598 1.17416L9.12019 2.90519C9.67036 3.27715 10 3.89794 10 4.56206V19.0005C10 19.0005 8.05428 20.5039 6.99362 20.0005C5.61376 19.3456 4.99731 16.6372 4.99731 16.6372L4.99971 2.00243Z" fill="url(#paint1_linear_2360_9460)"/>
</g>
<g id="Vector 3333">
<path d="M5.06546 16.2617L5 15.9999V16.1984C5 19.4025 7.59745 22 10.8016 22C11.9106 22 12.9964 21.6821 13.9303 21.084L18.1548 18.3787C18.993 17.8419 19.5 16.9151 19.5 15.9198V14.1879C19.5 13.5318 18.9681 12.9999 18.312 12.9999C18.1075 12.9999 17.9064 13.0527 17.7283 13.1532L9.12389 18.0069C8.55916 18.3255 7.90076 18.4364 7.26283 18.3204C6.18961 18.1253 5.33001 17.32 5.06546 16.2617Z" fill="url(#paint2_linear_2360_9460)"/>
<path d="M5.06546 16.2617L5 15.9999V16.1984C5 19.4025 7.59745 22 10.8016 22C11.9106 22 12.9964 21.6821 13.9303 21.084L18.1548 18.3787C18.993 17.8419 19.5 16.9151 19.5 15.9198V14.1879C19.5 13.5318 18.9681 12.9999 18.312 12.9999C18.1075 12.9999 17.9064 13.0527 17.7283 13.1532L9.12389 18.0069C8.55916 18.3255 7.90076 18.4364 7.26283 18.3204C6.18961 18.1253 5.33001 17.32 5.06546 16.2617Z" fill="url(#paint3_linear_2360_9460)"/>
</g>
<path id="Vector 3335" d="M13.2924 12.3771L12.0446 8.63386C12.0151 8.5452 12 8.45236 12 8.3589C12 7.72437 12.6577 7.30355 13.2338 7.56946L16.7005 9.16944C17.8657 9.70724 18.8144 10.6239 19.3919 11.7699C20.2661 13.5048 20.1928 15.5661 19.1976 17.2345L18.9616 17.63L18.6406 18C19.5697 16.6153 18.9111 14.7263 17.3224 14.2194L14.1255 13.1995C13.7324 13.0741 13.4229 12.7686 13.2924 12.3771Z" fill="url(#paint4_linear_2360_9460)"/>
</g>
<defs>
<linearGradient id="paint0_linear_2360_9460" x1="13.7356" y1="20.3051" x2="13.7356" y2="1.25562" gradientUnits="userSpaceOnUse">
<stop stop-color="#1B48EF"/>
<stop offset="0.12" stop-color="#1C51F0"/>
<stop offset="0.32" stop-color="#1E69F5"/>
<stop offset="0.57" stop-color="#2190FB"/>
<stop offset="1" stop-color="#26B8F4"/>
</linearGradient>
<linearGradient id="paint1_linear_2360_9460" x1="13.7309" y1="1.75831" x2="13.7309" y2="20.0054" gradientUnits="userSpaceOnUse">
<stop stop-opacity="0"/>
<stop offset="1" stop-opacity="0.1"/>
</linearGradient>
<linearGradient id="paint2_linear_2360_9460" x1="5" y1="17.4914" x2="19.4993" y2="17.4914" gradientUnits="userSpaceOnUse">
<stop stop-color="#39D2FF"/>
<stop offset="0.15" stop-color="#38CEFE"/>
<stop offset="0.29" stop-color="#35C3FA"/>
<stop offset="0.43" stop-color="#2FB0F3"/>
<stop offset="0.55" stop-color="#299AEB"/>
<stop offset="0.58" stop-color="#2692EC"/>
<stop offset="0.76" stop-color="#1A6CF1"/>
<stop offset="0.91" stop-color="#1355F4"/>
<stop offset="1" stop-color="#104CF5"/>
</linearGradient>
<linearGradient id="paint3_linear_2360_9460" x1="6.66842" y1="20.5831" x2="17.5046" y2="13.5619" gradientUnits="userSpaceOnUse">
<stop stop-color="white" stop-opacity="0"/>
<stop offset="1" stop-opacity="0.15"/>
</linearGradient>
<linearGradient id="paint4_linear_2360_9460" x1="10.6272" y1="9.58126" x2="20.7898" y2="16.6342" gradientUnits="userSpaceOnUse">
<stop stop-color="#37BDFF"/>
<stop offset="0.18" stop-color="#33BFFD"/>
<stop offset="0.36" stop-color="#28C5F5"/>
<stop offset="0.53" stop-color="#15D0E9"/>
<stop offset="0.55" stop-color="#12D1E7"/>
<stop offset="0.59" stop-color="#1CD2E5"/>
<stop offset="0.77" stop-color="#42D8DC"/>
<stop offset="0.91" stop-color="#59DBD6"/>
<stop offset="1" stop-color="#62DCD4"/>
</linearGradient>
</defs>
</svg>
