<svg width="72" height="72" viewBox="0 0 72 72" fill="none" xmlns="http://www.w3.org/2000/svg">
  <path
    d="M24.1969 56.8296L43.6969 13.3296C44.2052 12.1957 45.5365 11.6886 46.6704 12.1969C47.7098 12.6628 48.2226 13.8203 47.9093 14.8834L47.8031 15.1704L28.3031 58.6704C27.7948 59.8043 26.4635 60.3115 25.3296 59.8032C24.2902 59.3372 23.7774 58.1797 24.0907 57.1166L24.1969 56.8296L43.6969 13.3296L24.1969 56.8296ZM6.65901 34.409L19.409 21.659C20.2877 20.7803 21.7123 20.7803 22.591 21.659C23.3898 22.4578 23.4624 23.7078 22.8088 24.5886L22.591 24.841L11.432 36L22.591 47.159C23.4697 48.0377 23.4697 49.4623 22.591 50.341C21.7922 51.1398 20.5422 51.2124 19.6614 50.5589L19.409 50.341L6.65901 37.591C5.86021 36.7922 5.78759 35.5422 6.44116 34.6614L6.65901 34.409L19.409 21.659L6.65901 34.409ZM49.409 21.659C50.2078 20.8602 51.4578 20.7876 52.3386 21.4412L52.591 21.659L65.341 34.409C66.1398 35.2078 66.2124 36.4578 65.5588 37.3386L65.341 37.591L52.591 50.341C51.7123 51.2197 50.2877 51.2197 49.409 50.341C48.6102 49.5422 48.5376 48.2922 49.1912 47.4114L49.409 47.159L60.568 36L49.409 24.841C48.5303 23.9623 48.5303 22.5377 49.409 21.659Z"
    fill="white" fill-opacity="0.5" />
</svg>