<svg width="25" height="24" viewBox="0 0 25 24" fill="none" xmlns="http://www.w3.org/2000/svg">
<path d="M3.66675 6.25C3.66675 4.45508 5.12182 3 6.91675 3H18.4167C20.2117 3 21.6667 4.45507 21.6667 6.25V17.75C21.6667 19.5449 20.2117 21 18.4167 21H6.91675C5.12182 21 3.66675 19.5449 3.66675 17.75V6.25Z" fill="url(#paint0_linear_12913_64186)"/>
<path d="M11.1971 9.28033L8.47741 12L11.1971 14.7197C11.49 15.0126 11.49 15.4874 11.1971 15.7803C10.9042 16.0732 10.4293 16.0732 10.1364 15.7803L6.88642 12.5303C6.59352 12.2374 6.59352 11.7626 6.88642 11.4697L10.1364 8.21967C10.4293 7.92678 10.9042 7.92678 11.1971 8.21967C11.49 8.51256 11.49 8.98744 11.1971 9.28033ZM15.1971 8.21967L18.4471 11.4697C18.74 11.7626 18.74 12.2374 18.4471 12.5303L15.1971 15.7803C14.9042 16.0732 14.4293 16.0732 14.1364 15.7803C13.8435 15.4874 13.8435 15.0126 14.1364 14.7197L16.8561 12L14.1364 9.28033C13.8435 8.98744 13.8435 8.51256 14.1364 8.21967C14.4293 7.92678 14.9042 7.92678 15.1971 8.21967Z" fill="url(#paint1_linear_12913_64186)"/>
<defs>
<linearGradient id="paint0_linear_12913_64186" x1="8.05554" y1="3" x2="17.9269" y2="21" gradientUnits="userSpaceOnUse">
<stop offset="0.0281195" stop-color="#E67EEA"/>
<stop offset="0.43755" stop-color="#AD64D7"/>
<stop offset="1" stop-color="#794DC5"/>
</linearGradient>
<linearGradient id="paint1_linear_12913_64186" x1="9.51193" y1="8.30774" x2="14.2111" y2="20.4717" gradientUnits="userSpaceOnUse">
<stop stop-color="#FDFDFD"/>
<stop offset="1" stop-color="#F9DCFA"/>
</linearGradient>
</defs>
</svg>
