<svg width="72" height="72" viewBox="0 0 72 72" fill="none" xmlns="http://www.w3.org/2000/svg">
  <path
    d="M31.7733 7.5361C34.484 6.43719 37.516 6.43719 40.2267 7.5361L62.7225 16.656C64.7037 17.4592 66 19.3835 66 21.5214V50.4795C66 52.6174 64.7037 54.5417 62.7225 55.3449L40.2267 64.4648C37.516 65.5637 34.484 65.5637 31.7733 64.4648L9.27755 55.3449C7.29632 54.5417 6 52.6174 6 50.4795V21.5214C6 19.3835 7.29632 17.4592 9.27755 16.656L31.7733 7.5361ZM38.536 11.7064C36.9096 11.0471 35.0904 11.0471 33.464 11.7064L27.7229 14.0339L50.3034 22.8152L58.311 19.7233L38.536 11.7064ZM44.0733 25.2207L21.6442 16.4982L13.7709 19.6901L36.004 28.3363L44.0733 25.2207ZM10.5 50.4795C10.5 50.7849 10.6852 51.0598 10.9682 51.1746L33.464 60.2945C33.559 60.333 33.6548 60.3693 33.751 60.4033V32.2885L10.5 23.2464V50.4795ZM38.536 60.2945L61.0318 51.1746C61.3148 51.0598 61.5 50.7849 61.5 50.4795V23.3158L38.251 32.2925V60.4026C38.3466 60.3688 38.4416 60.3327 38.536 60.2945Z"
    fill="white" fill-opacity="0.5" />
</svg>