<svg width="72" height="72" viewBox="0 0 72 72" fill="none" xmlns="http://www.w3.org/2000/svg">
  <path
    d="M8.25 7.49963C7.00736 7.49963 6 8.50699 6 9.74963V26.9999C6 36.179 12.8708 43.7534 21.75 44.8606V47.2501C21.75 57.1913 29.8089 65.2501 39.75 65.2501C49.6911 65.2501 57.75 57.1913 57.75 47.2501V44.7165C61.6318 43.7174 64.5 40.1936 64.5 36C64.5 31.0294 60.4706 27 55.5 27C50.5294 27 46.5 31.0294 46.5 36C46.5 40.1936 49.3682 43.7174 53.25 44.7165V47.2501C53.25 54.706 47.2058 60.7501 39.75 60.7501C32.2942 60.7501 26.25 54.706 26.25 47.2501V44.8606C35.1292 43.7534 42 36.179 42 26.9999V9.74963C42 8.50699 40.9926 7.49963 39.75 7.49963H32.25C31.0074 7.49963 30 8.50699 30 9.74963C30 10.9923 31.0074 11.9996 32.25 11.9996H37.5V26.9999C37.5 34.4557 31.4558 40.4999 24 40.4999C16.5442 40.4999 10.5 34.4557 10.5 26.9999V11.9996H15.75C16.9926 11.9996 18 10.9923 18 9.74963C18 8.50699 16.9926 7.49963 15.75 7.49963H8.25ZM55.5 31.5C57.9853 31.5 60 33.5147 60 36C60 38.4853 57.9853 40.5 55.5 40.5C53.0147 40.5 51 38.4853 51 36C51 33.5147 53.0147 31.5 55.5 31.5Z"
    fill="white" fill-opacity="0.5" />
</svg>