<svg width="72" height="72" viewBox="0 0 72 72" fill="none" xmlns="http://www.w3.org/2000/svg">
  <path
    d="M15.5127 6C11.9264 6 8.96615 8.80455 8.77258 12.3857L6.25907 58.8857C6.05012 62.7511 9.12815 66 12.9992 66H21.4996C25.3707 66 28.4487 62.7511 28.2398 58.8857L25.7262 12.3857C25.5327 8.80454 22.5724 6 18.9861 6H15.5127ZM13.266 12.6286C13.3305 11.4348 14.3173 10.5 15.5127 10.5H18.9861C20.1815 10.5 21.1683 11.4348 21.2328 12.6286L23.7463 59.1285C23.816 60.417 22.79 61.5 21.4996 61.5H12.9992C11.7089 61.5 10.6829 60.417 10.7525 59.1286L13.266 12.6286ZM28.5352 66C29.7213 64.7635 30.5835 63.217 30.9895 61.5H34.4993V48.75C34.4993 45.8505 36.8498 43.5 39.7493 43.5H51.7493C54.6488 43.5 56.9993 45.8505 56.9993 48.75V61.5H59.2493C60.4919 61.5 61.4993 60.4926 61.4993 59.25V23.139L45.7754 37.6533C45.1187 38.2595 44.1655 38.4195 43.3469 38.0611C42.5282 37.7027 41.9993 36.8937 41.9993 36V23.139L29.9148 34.2939L29.5995 28.4609L42.7232 16.3467C43.3799 15.7405 44.333 15.5805 45.1517 15.9389C45.9704 16.2973 46.4993 17.1063 46.4993 18V30.861L62.2232 16.3467C62.8799 15.7405 63.833 15.5805 64.6517 15.9389C65.4704 16.2973 65.9993 17.1063 65.9993 18V59.25C65.9993 62.9779 62.9772 66 59.2493 66H28.5352ZM38.9993 48.75V61.5H52.4993V48.75C52.4993 48.3358 52.1635 48 51.7493 48H39.7493C39.3351 48 38.9993 48.3358 38.9993 48.75Z"
    fill="white" fill-opacity="0.5" />
</svg>