<svg width="25" height="24" viewBox="0 0 25 24" fill="none" xmlns="http://www.w3.org/2000/svg">
<g clip-path="url(#clip0_12866_22062)">
<path d="M21.2337 8.19135C22.4074 10.498 22.7197 13.1478 22.1144 15.6642C21.5092 18.1805 20.0261 20.3984 17.9318 21.9191C15.8375 23.4398 13.2695 24.1634 10.6894 23.96C8.10923 23.7566 5.68631 22.6394 3.85623 20.8093C2.02614 18.9792 0.908953 16.5563 0.705526 13.9762C0.502099 11.3961 1.22578 8.82801 2.74645 6.73374C4.26713 4.63947 6.48503 3.15638 9.00139 2.55113C11.5178 1.94587 14.1675 2.25816 16.4742 3.43185C16.6013 2.68598 16.9312 1.98945 17.4276 1.41847C17.9241 0.847484 18.568 0.42404 19.2889 0.194465C20.0099 -0.0351092 20.7801 -0.0619697 21.5153 0.116822C22.2505 0.295615 22.9223 0.673171 23.4574 1.20818C23.9924 1.7432 24.3699 2.41506 24.5487 3.15025C24.7275 3.88545 24.7007 4.65565 24.4711 5.37661C24.2415 6.09756 23.8181 6.74148 23.2471 7.23793C22.6761 7.73437 21.9796 8.0642 21.2337 8.19135Z" fill="white"/>
<path d="M8.88602 10.0647L5.16602 6.34469C5.53928 6.00613 5.94073 5.70002 6.36602 5.42969L9.06602 9.91619C9.00152 9.96119 8.94452 10.0152 8.88602 10.0647ZM7.80002 14.9562L3.33602 17.7147C2.61702 16.4225 2.21597 14.9776 2.16602 13.4997H7.41602C7.45125 14.005 7.58153 14.4992 7.80002 14.9562ZM13.5255 16.7052L16.236 21.1797C14.9968 21.9204 13.6023 22.363 12.1628 22.4723C10.7232 22.5816 9.27789 22.3548 7.94102 21.8097L9.96602 16.9827C10.4423 17.1774 10.9515 17.2792 11.466 17.2827H11.49C12.2076 17.2736 12.91 17.0743 13.5255 16.7052Z" fill="#93D500"/>
<path d="M8.53825 16.0244L4.86625 19.7534C4.35299 19.2237 3.90482 18.6345 3.53125 17.9984L7.96675 15.2579C8.12666 15.5349 8.31846 15.7921 8.53825 16.0244ZM9.33775 9.73194L6.66625 5.21844C8.09342 4.36044 9.72604 3.90435 11.3913 3.89844V9.12444C10.6645 9.13799 9.95492 9.3479 9.33775 9.73194ZM15.5433 13.2134H20.7663C20.7677 14.4252 20.53 15.6254 20.0667 16.7451C19.6034 17.8648 18.9235 18.882 18.0663 19.7384L14.3793 16.0484C15.1254 15.2936 15.5437 14.2748 15.5433 13.2134Z" fill="#6BA43A"/>
<path d="M7.39202 13.1691H2.16602C2.17322 10.709 3.15485 8.35198 4.89602 6.61406L8.60552 10.2966C8.59352 10.3086 8.57702 10.3176 8.56502 10.3311C7.81539 11.0856 7.39385 12.1055 7.39202 13.1691ZM11.841 9.14906V3.91406C13.379 3.9749 14.8761 4.42661 16.191 5.22656L12.1485 9.17906C12.0495 9.16256 11.943 9.16256 11.841 9.14906ZM9.55352 16.7796L7.59602 21.6591C6.70799 21.2401 5.88867 20.6888 5.16602 20.0241L8.86352 16.3131C9.07707 16.4916 9.30826 16.6479 9.55352 16.7796ZM19.47 8.52056C20.2537 9.82929 20.6943 11.3147 20.751 12.8391H15.516C15.504 12.6996 15.5025 12.5601 15.477 12.4236L19.47 8.52056ZM14.0865 16.3011L17.796 20.0241C17.4129 20.3816 17.0016 20.7076 16.566 20.9991L13.866 16.4841C13.944 16.4271 14.016 16.3626 14.0865 16.3011Z" fill="#4D5A31"/>
<path d="M23.1658 4.08C23.1658 4.41881 23.0991 4.7543 22.9694 5.06732C22.8397 5.38034 22.6497 5.66476 22.4101 5.90434C22.1705 6.14391 21.8861 6.33395 21.5731 6.46361C21.2601 6.59327 20.9246 6.66 20.5858 6.66C20.2029 6.66043 19.8243 6.57858 19.4758 6.42L13.7608 12C14.0242 12.4992 14.1171 13.0709 14.0254 13.6279C13.9337 14.1848 13.6623 14.6965 13.2528 15.0849C12.8432 15.4733 12.3178 15.7171 11.7568 15.7792C11.1958 15.8413 10.6298 15.7182 10.1453 15.4287C9.66068 15.1392 9.28406 14.6992 9.07281 14.1758C8.86156 13.6524 8.82727 13.0742 8.97516 12.5295C9.12305 11.9847 9.44502 11.5033 9.89197 11.1586C10.3389 10.8138 10.8863 10.6247 11.4508 10.62H11.4658C11.8484 10.6227 12.2263 10.7044 12.5758 10.86L18.2908 5.265C18.0968 4.90055 17.9988 4.49278 18.0058 4.08C18.0058 3.39574 18.2776 2.73951 18.7614 2.25566C19.2453 1.77182 19.9015 1.5 20.5858 1.5C21.27 1.5 21.9263 1.77182 22.4101 2.25566C22.894 2.73951 23.1658 3.39574 23.1658 4.08Z" fill="#424143"/>
</g>
<defs>
<clipPath id="clip0_12866_22062">
<rect width="24" height="24" fill="white" transform="translate(0.666016)"/>
</clipPath>
</defs>
</svg>
