<svg width="72" height="72" viewBox="0 0 72 72" fill="none" xmlns="http://www.w3.org/2000/svg">
  <path
    d="M47.398 9C51.8697 9 55.7681 12.0418 56.8554 16.3792L58.011 21H60.75C61.8891 21 62.8305 21.8465 62.9795 22.9447L63 23.25C63 24.3891 62.1535 25.3305 61.0553 25.4795L60.75 25.5H59.142L59.7661 27.9795C61.7124 29.1639 63.0122 31.3051 63.0122 33.75V59.2403C63.0122 62.1398 60.6617 64.4903 57.7622 64.4903H53.25C50.3505 64.4903 48 62.1398 48 59.2403L47.997 55.5H24.012L24.0122 59.2403C24.0122 62.1398 21.6617 64.4903 18.7622 64.4903H14.25C11.3505 64.4903 9 62.1398 9 59.2403V33.75C9 31.3055 10.2995 29.1644 12.2453 27.98L12.867 25.5H11.25C10.1109 25.5 9.16953 24.6535 9.02054 23.5553L9 23.25C9 22.1109 9.84646 21.1695 10.9447 21.0205L11.25 21H13.989L15.1469 16.3853C16.232 12.0449 20.1319 9 24.6058 9H47.398ZM19.512 55.5H13.497L13.5 59.2403C13.5 59.6545 13.8358 59.9903 14.25 59.9903H18.7622C19.1765 59.9903 19.5122 59.6545 19.5122 59.2403L19.512 55.5ZM58.512 55.5H52.497L52.5 59.2403C52.5 59.6545 52.8358 59.9903 53.25 59.9903H57.7622C58.1765 59.9903 58.5122 59.6545 58.5122 59.2403L58.512 55.5ZM56.2622 31.5H15.75C14.5074 31.5 13.5 32.5074 13.5 33.75V51H58.5122V33.75C58.5122 32.5074 57.5049 31.5 56.2622 31.5ZM30.747 42H41.2522C42.4949 42 43.5022 43.0074 43.5022 44.25C43.5022 45.3891 42.6558 46.3305 41.5576 46.4795L41.2522 46.5H30.747C29.5043 46.5 28.497 45.4926 28.497 44.25C28.497 43.1109 29.3434 42.1695 30.4417 42.0205L30.747 42H41.2522H30.747ZM50.9999 36C52.6567 36 53.9998 37.3431 53.9998 38.9999C53.9998 40.6567 52.6567 41.9998 50.9999 41.9998C49.3431 41.9998 48 40.6567 48 38.9999C48 37.3431 49.3431 36 50.9999 36ZM20.9999 36C22.6567 36 23.9998 37.3431 23.9998 38.9999C23.9998 40.6567 22.6567 41.9998 20.9999 41.9998C19.3431 41.9998 18 40.6567 18 38.9999C18 37.3431 19.3431 36 20.9999 36ZM47.398 13.5H24.6058C22.1968 13.5 20.0969 15.1396 19.5126 17.4767L17.1317 27H54.8786L52.4905 17.4734C51.905 15.1379 49.8058 13.5 47.398 13.5Z"
    fill="white" fill-opacity="0.5" />
</svg>